<svg width="41" height="40" viewBox="0 0 41 40" fill="none" xmlns="http://www.w3.org/2000/svg">
<path fill-rule="evenodd" clip-rule="evenodd" d="M28.5 8.87866C27.6722 8.87866 26.8783 9.20751 26.2929 9.79288L16.7929 19.2929C16.6647 19.421 16.5738 19.5816 16.5299 19.7574L15.5299 23.7574C15.4447 24.0982 15.5445 24.4587 15.7929 24.7071C16.0413 24.9555 16.4018 25.0553 16.7425 24.9701L20.7425 23.9701C20.9184 23.9262 21.0789 23.8352 21.2071 23.7071L30.7071 14.2071C31.2925 13.6217 31.6213 12.8278 31.6213 12C31.6213 11.1722 31.2925 10.3782 30.7071 9.79288C30.1217 9.20751 29.3278 8.87866 28.5 8.87866ZM27.7071 11.2071C27.9174 10.9968 28.2026 10.8787 28.5 10.8787C28.7974 10.8787 29.0826 10.9968 29.2929 11.2071C29.5032 11.4174 29.6213 11.7026 29.6213 12C29.6213 12.2974 29.5032 12.5826 29.2929 12.7929L19.9888 22.097L17.8744 22.6256L18.403 20.5112L27.7071 11.2071Z" fill="white"/>
<path d="M12.5 11C11.7044 11 10.9413 11.3161 10.3787 11.8787C9.81607 12.4413 9.5 13.2044 9.5 14V28C9.5 28.7957 9.81607 29.5587 10.3787 30.1213C10.9413 30.6839 11.7043 31 12.5 31H26.5C27.2957 31 28.0587 30.6839 28.6213 30.1213C29.1839 29.5587 29.5 28.7957 29.5 28V21C29.5 20.4477 29.0523 20 28.5 20C27.9477 20 27.5 20.4477 27.5 21V28C27.5 28.2652 27.3946 28.5196 27.2071 28.7071C27.0196 28.8946 26.7652 29 26.5 29H12.5C12.2348 29 11.9804 28.8946 11.7929 28.7071C11.6054 28.5196 11.5 28.2652 11.5 28V14C11.5 13.7348 11.6054 13.4804 11.7929 13.2929C11.9804 13.1054 12.2348 13 12.5 13H19.5C20.0523 13 20.5 12.5523 20.5 12C20.5 11.4477 20.0523 11 19.5 11H12.5Z" fill="white"/>
</svg>
