<svg width="41" height="40" viewBox="0 0 41 40" fill="none" xmlns="http://www.w3.org/2000/svg">
<path fill-rule="evenodd" clip-rule="evenodd" d="M9.50014 13.9827C9.49997 13.9925 9.49996 14.0024 9.50009 14.0122V26C9.50009 27.6523 10.8478 29 12.5001 29H28.5001C30.1524 29 31.5001 27.6523 31.5001 26V14.0124C31.5002 14.0024 31.5002 13.9925 31.5 13.9825C31.4906 12.3382 30.1465 11 28.5001 11H12.5001C10.8536 11 9.50953 12.3383 9.50014 13.9827ZM11.6067 13.5539C11.772 13.2269 12.1121 13 12.5001 13H28.5001C28.8881 13 29.2281 13.2269 29.3935 13.5539L20.5001 19.7793L11.6067 13.5539ZM29.5001 15.9207V26C29.5001 26.5477 29.0478 27 28.5001 27H12.5001C11.9524 27 11.5001 26.5477 11.5001 26V15.9207L19.9266 21.8192C20.2709 22.0603 20.7292 22.0603 21.0735 21.8192L29.5001 15.9207Z" fill="white"/>
</svg>
