<svg width="1920" height="124" viewBox="0 0 1920 124" fill="none" xmlns="http://www.w3.org/2000/svg">
<path d="M929.136 15.648V21.024H915.184V60H908.976V21.024H895.024V15.648H929.136ZM941.26 60H935.308V26.72H941.26V60ZM938.252 20.704C937.185 20.704 936.268 20.3627 935.5 19.68C934.774 18.9547 934.411 17.9947 934.411 16.8C934.411 15.6053 934.774 14.6667 935.5 13.984C936.268 13.2587 937.185 12.896 938.252 12.896C939.318 12.896 940.214 13.2587 940.94 13.984C941.708 14.6667 942.092 15.6053 942.092 16.8C942.092 17.9947 941.708 18.9547 940.94 19.68C940.214 20.3627 939.318 20.704 938.252 20.704ZM957.063 26.72H969.671V31.712H957.063V47.072C957.063 48.736 957.191 50.1227 957.447 51.232C957.703 52.2987 958.087 53.152 958.599 53.792C959.111 54.3893 959.751 54.816 960.519 55.072C961.287 55.328 962.183 55.456 963.207 55.456C964.999 55.456 966.428 55.264 967.495 54.88C968.604 54.4533 969.372 54.1547 969.799 53.984L970.951 58.912C970.354 59.2107 969.308 59.5733 967.815 60C966.322 60.4693 964.615 60.704 962.695 60.704C960.434 60.704 958.556 60.4267 957.063 59.872C955.612 59.2747 954.439 58.4 953.543 57.248C952.647 56.096 952.007 54.688 951.623 53.024C951.282 51.3173 951.111 49.3547 951.111 47.136V17.44L957.063 16.416V26.72ZM987.229 60.64C983.56 60.5547 980.957 59.7653 979.421 58.272C977.885 56.7787 977.117 54.4533 977.117 51.296V11.36L983.069 10.336V50.336C983.069 51.3173 983.154 52.128 983.325 52.768C983.496 53.408 983.773 53.92 984.157 54.304C984.541 54.688 985.053 54.9867 985.693 55.2C986.333 55.3707 987.122 55.52 988.061 55.648L987.229 60.64ZM992.889 43.424C992.889 40.48 993.316 37.92 994.169 35.744C995.022 33.5253 996.153 31.6907 997.561 30.24C998.969 28.7893 1000.59 27.7013 1002.43 26.976C1004.26 26.2507 1006.14 25.888 1008.06 25.888C1012.54 25.888 1015.97 27.296 1018.36 30.112C1020.75 32.8853 1021.94 37.1307 1021.94 42.848C1021.94 43.104 1021.94 43.4453 1021.94 43.872C1021.94 44.256 1021.92 44.6187 1021.88 44.96H999.097C999.353 48.416 1000.36 51.04 1002.11 52.832C1003.85 54.624 1006.59 55.52 1010.3 55.52C1012.39 55.52 1014.14 55.3493 1015.55 55.008C1017 54.624 1018.08 54.2613 1018.81 53.92L1019.64 58.912C1018.92 59.296 1017.64 59.7013 1015.8 60.128C1014.01 60.5547 1011.96 60.768 1009.66 60.768C1006.76 60.768 1004.24 60.3413 1002.11 59.488C1000.01 58.592 998.286 57.376 996.921 55.84C995.556 54.304 994.532 52.4907 993.849 50.4C993.209 48.2667 992.889 45.9413 992.889 43.424ZM1015.74 40.16C1015.78 37.472 1015.1 35.2747 1013.69 33.568C1012.32 31.8187 1010.43 30.944 1007.99 30.944C1006.63 30.944 1005.41 31.2213 1004.35 31.776C1003.32 32.288 1002.45 32.9707 1001.72 33.824C1001 34.6773 1000.42 35.6587 999.993 36.768C999.609 37.8773 999.353 39.008 999.225 40.16H1015.74Z" fill="#12F7D6"/>
<path d="M888.667 88C888.667 90.9455 891.054 93.3333 894 93.3333C896.946 93.3333 899.333 90.9455 899.333 88C899.333 85.0545 896.946 82.6667 894 82.6667C891.054 82.6667 888.667 85.0545 888.667 88ZM1020.67 88C1020.67 90.9455 1023.05 93.3333 1026 93.3333C1028.95 93.3333 1031.33 90.9455 1031.33 88C1031.33 85.0545 1028.95 82.6667 1026 82.6667C1023.05 82.6667 1020.67 85.0545 1020.67 88ZM894 89H1026V87H894V89Z" fill="#12F7D6"/>
<path d="M687.922 120V118.928H690.706V109.904H687.922V108.832H694.834V109.904H692.05V118.928H694.834V120H687.922ZM707.334 108.16H708.614V113.088H708.678C708.763 112.885 708.87 112.693 708.998 112.512C709.126 112.32 709.28 112.155 709.462 112.016C709.654 111.877 709.878 111.765 710.134 111.68C710.39 111.595 710.688 111.552 711.03 111.552C711.894 111.552 712.587 111.829 713.11 112.384C713.632 112.928 713.894 113.701 713.894 114.704V120H712.614V114.928C712.614 114.171 712.448 113.611 712.118 113.248C711.787 112.875 711.302 112.688 710.662 112.688C710.406 112.688 710.155 112.72 709.91 112.784C709.664 112.848 709.446 112.944 709.254 113.072C709.062 113.2 708.907 113.365 708.79 113.568C708.672 113.771 708.614 114.005 708.614 114.272V120H707.334V108.16ZM723.279 120C722.778 120 722.421 119.872 722.207 119.616C721.994 119.36 721.861 119.04 721.807 118.656H721.727C721.546 119.136 721.253 119.515 720.847 119.792C720.453 120.059 719.919 120.192 719.247 120.192C718.383 120.192 717.695 119.968 717.183 119.52C716.671 119.072 716.415 118.459 716.415 117.68C716.415 116.912 716.693 116.32 717.247 115.904C717.813 115.488 718.719 115.28 719.967 115.28H721.727V114.464C721.727 113.856 721.557 113.403 721.215 113.104C720.874 112.795 720.389 112.64 719.759 112.64C719.205 112.64 718.751 112.752 718.399 112.976C718.047 113.189 717.765 113.483 717.551 113.856L716.687 113.216C716.794 113.003 716.938 112.795 717.119 112.592C717.301 112.389 717.525 112.213 717.791 112.064C718.058 111.904 718.362 111.781 718.703 111.696C719.045 111.6 719.423 111.552 719.839 111.552C720.81 111.552 721.578 111.797 722.143 112.288C722.719 112.779 723.007 113.461 723.007 114.336V118.88H724.159V120H723.279ZM719.471 119.12C719.802 119.12 720.101 119.083 720.367 119.008C720.645 118.923 720.885 118.816 721.087 118.688C721.29 118.549 721.445 118.389 721.551 118.208C721.669 118.016 721.727 117.813 721.727 117.6V116.24H719.967C719.199 116.24 718.639 116.347 718.287 116.56C717.935 116.773 717.759 117.083 717.759 117.488V117.824C717.759 118.251 717.909 118.576 718.207 118.8C718.517 119.013 718.938 119.12 719.471 119.12ZM731.753 118.656H731.689C731.156 119.68 730.308 120.192 729.145 120.192C728.132 120.192 727.337 119.813 726.761 119.056C726.196 118.299 725.913 117.237 725.913 115.872C725.913 114.507 726.196 113.445 726.761 112.688C727.337 111.931 728.132 111.552 729.145 111.552C730.308 111.552 731.156 112.064 731.689 113.088H731.753V108.16H733.033V120H731.753V118.656ZM729.641 119.056C729.929 119.056 730.201 119.019 730.457 118.944C730.713 118.869 730.937 118.763 731.129 118.624C731.321 118.475 731.47 118.299 731.577 118.096C731.694 117.883 731.753 117.637 731.753 117.36V114.384C731.753 114.107 731.694 113.867 731.577 113.664C731.47 113.451 731.321 113.275 731.129 113.136C730.937 112.987 730.713 112.875 730.457 112.8C730.201 112.725 729.929 112.688 729.641 112.688C728.894 112.688 728.313 112.917 727.897 113.376C727.492 113.824 727.289 114.421 727.289 115.168V116.576C727.289 117.323 727.492 117.925 727.897 118.384C728.313 118.832 728.894 119.056 729.641 119.056ZM749.341 120C748.711 120 748.247 119.824 747.949 119.472C747.661 119.12 747.517 118.667 747.517 118.112V112.832H744.765V111.744H746.813C747.09 111.744 747.282 111.691 747.389 111.584C747.506 111.467 747.565 111.269 747.565 110.992V108.832H748.797V111.744H752.557V112.832H748.797V118.912H752.557V120H749.341ZM755.302 108.16H756.582V113.088H756.646C756.732 112.885 756.838 112.693 756.966 112.512C757.094 112.32 757.249 112.155 757.43 112.016C757.622 111.877 757.846 111.765 758.102 111.68C758.358 111.595 758.657 111.552 758.998 111.552C759.862 111.552 760.556 111.829 761.078 112.384C761.601 112.928 761.862 113.701 761.862 114.704V120H760.582V114.928C760.582 114.171 760.417 113.611 760.086 113.248C759.756 112.875 759.27 112.688 758.63 112.688C758.374 112.688 758.124 112.72 757.878 112.784C757.633 112.848 757.414 112.944 757.222 113.072C757.03 113.2 756.876 113.365 756.758 113.568C756.641 113.771 756.582 114.005 756.582 114.272V120H755.302V108.16ZM768.272 120.192C767.675 120.192 767.136 120.091 766.656 119.888C766.187 119.685 765.781 119.397 765.44 119.024C765.109 118.64 764.853 118.187 764.672 117.664C764.491 117.131 764.4 116.539 764.4 115.888C764.4 115.227 764.491 114.629 764.672 114.096C764.864 113.563 765.125 113.109 765.456 112.736C765.787 112.352 766.181 112.059 766.64 111.856C767.109 111.653 767.627 111.552 768.192 111.552C768.747 111.552 769.248 111.653 769.696 111.856C770.155 112.059 770.544 112.341 770.864 112.704C771.184 113.056 771.429 113.477 771.6 113.968C771.771 114.459 771.856 114.997 771.856 115.584V116.192H765.744V116.576C765.744 116.939 765.803 117.275 765.92 117.584C766.037 117.893 766.203 118.16 766.416 118.384C766.64 118.608 766.907 118.784 767.216 118.912C767.536 119.029 767.888 119.088 768.272 119.088C768.827 119.088 769.307 118.96 769.712 118.704C770.117 118.448 770.427 118.096 770.64 117.648L771.584 118.288C771.339 118.843 770.928 119.301 770.352 119.664C769.787 120.016 769.093 120.192 768.272 120.192ZM768.192 112.608C767.84 112.608 767.515 112.672 767.216 112.8C766.917 112.928 766.656 113.104 766.432 113.328C766.219 113.552 766.048 113.819 765.92 114.128C765.803 114.427 765.744 114.757 765.744 115.12V115.232H770.48V115.056C770.48 114.693 770.421 114.363 770.304 114.064C770.197 113.765 770.043 113.509 769.84 113.296C769.648 113.072 769.408 112.901 769.12 112.784C768.843 112.667 768.533 112.608 768.192 112.608ZM784.036 111.744H785.316V113.088H785.38C785.913 112.064 786.761 111.552 787.924 111.552C788.937 111.552 789.726 111.931 790.292 112.688C790.868 113.445 791.156 114.507 791.156 115.872C791.156 117.237 790.868 118.299 790.292 119.056C789.726 119.813 788.937 120.192 787.924 120.192C786.761 120.192 785.913 119.68 785.38 118.656H785.316V123.2H784.036V111.744ZM787.428 119.056C788.174 119.056 788.75 118.832 789.156 118.384C789.572 117.925 789.78 117.323 789.78 116.576V115.168C789.78 114.421 789.572 113.824 789.156 113.376C788.75 112.917 788.174 112.688 787.428 112.688C787.14 112.688 786.868 112.725 786.612 112.8C786.356 112.875 786.132 112.987 785.94 113.136C785.748 113.275 785.593 113.451 785.476 113.664C785.369 113.867 785.316 114.107 785.316 114.384V117.36C785.316 117.637 785.369 117.883 785.476 118.096C785.593 118.299 785.748 118.475 785.94 118.624C786.132 118.763 786.356 118.869 786.612 118.944C786.868 119.019 787.14 119.056 787.428 119.056ZM793.389 118.912H796.269V109.248H793.389V108.16H797.549V118.912H800.429V120H793.389V118.912ZM806.647 120.192C806.05 120.192 805.511 120.091 805.031 119.888C804.562 119.685 804.156 119.397 803.815 119.024C803.484 118.64 803.228 118.187 803.047 117.664C802.866 117.131 802.775 116.539 802.775 115.888C802.775 115.227 802.866 114.629 803.047 114.096C803.239 113.563 803.5 113.109 803.831 112.736C804.162 112.352 804.556 112.059 805.015 111.856C805.484 111.653 806.002 111.552 806.567 111.552C807.122 111.552 807.623 111.653 808.071 111.856C808.53 112.059 808.919 112.341 809.239 112.704C809.559 113.056 809.804 113.477 809.975 113.968C810.146 114.459 810.231 114.997 810.231 115.584V116.192H804.119V116.576C804.119 116.939 804.178 117.275 804.295 117.584C804.412 117.893 804.578 118.16 804.791 118.384C805.015 118.608 805.282 118.784 805.591 118.912C805.911 119.029 806.263 119.088 806.647 119.088C807.202 119.088 807.682 118.96 808.087 118.704C808.492 118.448 808.802 118.096 809.015 117.648L809.959 118.288C809.714 118.843 809.303 119.301 808.727 119.664C808.162 120.016 807.468 120.192 806.647 120.192ZM806.567 112.608C806.215 112.608 805.89 112.672 805.591 112.8C805.292 112.928 805.031 113.104 804.807 113.328C804.594 113.552 804.423 113.819 804.295 114.128C804.178 114.427 804.119 114.757 804.119 115.12V115.232H808.855V115.056C808.855 114.693 808.796 114.363 808.679 114.064C808.572 113.765 808.418 113.509 808.215 113.296C808.023 113.072 807.783 112.901 807.495 112.784C807.218 112.667 806.908 112.608 806.567 112.608ZM819.217 120C818.716 120 818.358 119.872 818.145 119.616C817.932 119.36 817.798 119.04 817.745 118.656H817.665C817.484 119.136 817.19 119.515 816.785 119.792C816.39 120.059 815.857 120.192 815.185 120.192C814.321 120.192 813.633 119.968 813.121 119.52C812.609 119.072 812.353 118.459 812.353 117.68C812.353 116.912 812.63 116.32 813.185 115.904C813.75 115.488 814.657 115.28 815.905 115.28H817.665V114.464C817.665 113.856 817.494 113.403 817.153 113.104C816.812 112.795 816.326 112.64 815.697 112.64C815.142 112.64 814.689 112.752 814.337 112.976C813.985 113.189 813.702 113.483 813.489 113.856L812.625 113.216C812.732 113.003 812.876 112.795 813.057 112.592C813.238 112.389 813.462 112.213 813.729 112.064C813.996 111.904 814.3 111.781 814.641 111.696C814.982 111.6 815.361 111.552 815.777 111.552C816.748 111.552 817.516 111.797 818.081 112.288C818.657 112.779 818.945 113.461 818.945 114.336V118.88H820.097V120H819.217ZM815.409 119.12C815.74 119.12 816.038 119.083 816.305 119.008C816.582 118.923 816.822 118.816 817.025 118.688C817.228 118.549 817.382 118.389 817.489 118.208C817.606 118.016 817.665 117.813 817.665 117.6V116.24H815.905C815.137 116.24 814.577 116.347 814.225 116.56C813.873 116.773 813.697 117.083 813.697 117.488V117.824C813.697 118.251 813.846 118.576 814.145 118.8C814.454 119.013 814.876 119.12 815.409 119.12ZM825.787 120.192C824.923 120.192 824.176 120.048 823.547 119.76C822.928 119.461 822.4 119.067 821.963 118.576L822.827 117.824C823.221 118.24 823.653 118.56 824.123 118.784C824.592 119.008 825.157 119.12 825.819 119.12C826.459 119.12 826.981 119.008 827.387 118.784C827.803 118.549 828.011 118.187 828.011 117.696C828.011 117.483 827.968 117.307 827.883 117.168C827.808 117.019 827.701 116.901 827.563 116.816C827.424 116.731 827.269 116.667 827.099 116.624C826.928 116.571 826.747 116.528 826.555 116.496L825.259 116.304C824.971 116.261 824.656 116.203 824.315 116.128C823.984 116.053 823.68 115.936 823.403 115.776C823.125 115.605 822.891 115.381 822.699 115.104C822.517 114.827 822.427 114.464 822.427 114.016C822.427 113.6 822.507 113.243 822.667 112.944C822.837 112.635 823.072 112.379 823.371 112.176C823.669 111.963 824.021 111.808 824.427 111.712C824.832 111.605 825.275 111.552 825.755 111.552C826.501 111.552 827.147 111.669 827.691 111.904C828.245 112.139 828.72 112.464 829.115 112.88L828.283 113.664C828.187 113.547 828.064 113.429 827.915 113.312C827.776 113.184 827.6 113.072 827.387 112.976C827.184 112.869 826.944 112.784 826.667 112.72C826.389 112.656 826.069 112.624 825.707 112.624C825.056 112.624 824.555 112.736 824.203 112.96C823.861 113.184 823.691 113.509 823.691 113.936C823.691 114.149 823.728 114.331 823.803 114.48C823.888 114.619 824 114.731 824.139 114.816C824.277 114.901 824.432 114.971 824.603 115.024C824.784 115.067 824.965 115.104 825.147 115.136L826.443 115.328C826.741 115.371 827.056 115.429 827.387 115.504C827.717 115.579 828.021 115.701 828.299 115.872C828.576 116.032 828.805 116.251 828.987 116.528C829.179 116.805 829.275 117.168 829.275 117.616C829.275 118.437 828.955 119.072 828.315 119.52C827.685 119.968 826.843 120.192 825.787 120.192ZM837.236 118.656H837.172C837.087 118.859 836.98 119.056 836.852 119.248C836.724 119.429 836.564 119.589 836.372 119.728C836.191 119.867 835.972 119.979 835.716 120.064C835.46 120.149 835.162 120.192 834.82 120.192C833.956 120.192 833.263 119.92 832.74 119.376C832.218 118.821 831.956 118.043 831.956 117.04V111.744H833.236V116.816C833.236 117.573 833.402 118.139 833.732 118.512C834.063 118.875 834.548 119.056 835.188 119.056C835.444 119.056 835.695 119.024 835.94 118.96C836.186 118.896 836.404 118.8 836.596 118.672C836.788 118.544 836.943 118.384 837.06 118.192C837.178 117.989 837.236 117.749 837.236 117.472V111.744H838.516V120H837.236V118.656ZM841.31 118.912H843.726V112.832H841.31V111.744H845.006V113.824H845.086C845.257 113.173 845.577 112.667 846.046 112.304C846.526 111.931 847.134 111.744 847.87 111.744H849.022V113.024H847.47C846.734 113.024 846.137 113.237 845.678 113.664C845.23 114.091 845.006 114.651 845.006 115.344V118.912H848.206V120H841.31V118.912ZM854.616 120.192C854.019 120.192 853.48 120.091 853 119.888C852.531 119.685 852.125 119.397 851.784 119.024C851.453 118.64 851.197 118.187 851.016 117.664C850.835 117.131 850.744 116.539 850.744 115.888C850.744 115.227 850.835 114.629 851.016 114.096C851.208 113.563 851.469 113.109 851.8 112.736C852.131 112.352 852.525 112.059 852.984 111.856C853.453 111.653 853.971 111.552 854.536 111.552C855.091 111.552 855.592 111.653 856.04 111.856C856.499 112.059 856.888 112.341 857.208 112.704C857.528 113.056 857.773 113.477 857.944 113.968C858.115 114.459 858.2 114.997 858.2 115.584V116.192H852.088V116.576C852.088 116.939 852.147 117.275 852.264 117.584C852.381 117.893 852.547 118.16 852.76 118.384C852.984 118.608 853.251 118.784 853.56 118.912C853.88 119.029 854.232 119.088 854.616 119.088C855.171 119.088 855.651 118.96 856.056 118.704C856.461 118.448 856.771 118.096 856.984 117.648L857.928 118.288C857.683 118.843 857.272 119.301 856.696 119.664C856.131 120.016 855.437 120.192 854.616 120.192ZM854.536 112.608C854.184 112.608 853.859 112.672 853.56 112.8C853.261 112.928 853 113.104 852.776 113.328C852.563 113.552 852.392 113.819 852.264 114.128C852.147 114.427 852.088 114.757 852.088 115.12V115.232H856.824V115.056C856.824 114.693 856.765 114.363 856.648 114.064C856.541 113.765 856.387 113.509 856.184 113.296C855.992 113.072 855.752 112.901 855.464 112.784C855.187 112.667 854.877 112.608 854.536 112.608ZM873.659 120.192C873.083 120.192 872.561 120.091 872.091 119.888C871.633 119.685 871.238 119.397 870.907 119.024C870.587 118.64 870.342 118.187 870.171 117.664C870.001 117.131 869.915 116.533 869.915 115.872C869.915 115.221 870.001 114.629 870.171 114.096C870.342 113.563 870.587 113.109 870.907 112.736C871.238 112.352 871.633 112.059 872.091 111.856C872.561 111.653 873.083 111.552 873.659 111.552C874.235 111.552 874.753 111.653 875.211 111.856C875.681 112.059 876.075 112.352 876.395 112.736C876.726 113.109 876.977 113.563 877.147 114.096C877.318 114.629 877.403 115.221 877.403 115.872C877.403 116.533 877.318 117.131 877.147 117.664C876.977 118.187 876.726 118.64 876.395 119.024C876.075 119.397 875.681 119.685 875.211 119.888C874.753 120.091 874.235 120.192 873.659 120.192ZM873.659 119.088C874.374 119.088 874.95 118.875 875.387 118.448C875.825 118.021 876.043 117.36 876.043 116.464V115.28C876.043 114.384 875.825 113.723 875.387 113.296C874.95 112.869 874.374 112.656 873.659 112.656C872.945 112.656 872.369 112.869 871.931 113.296C871.494 113.723 871.275 114.384 871.275 115.28V116.464C871.275 117.36 871.494 118.021 871.931 118.448C872.369 118.875 872.945 119.088 873.659 119.088ZM879.781 118.912H882.565V112.832H879.621V111.744H882.565V110.048C882.565 109.493 882.709 109.04 882.997 108.688C883.296 108.336 883.76 108.16 884.389 108.16H887.157V109.248H883.845V111.744H887.157V112.832H883.845V118.912H886.789V120H879.781V118.912ZM898.121 111.744H899.257L900.201 118.88H900.345L901.753 111.744H903.161L904.569 118.88H904.713L905.657 111.744H906.761L905.497 120H903.833L902.521 113.088H902.393L901.049 120H899.385L898.121 111.744ZM912.034 120.192C911.458 120.192 910.936 120.091 910.466 119.888C910.008 119.685 909.613 119.397 909.282 119.024C908.962 118.64 908.717 118.187 908.546 117.664C908.376 117.131 908.29 116.533 908.29 115.872C908.29 115.221 908.376 114.629 908.546 114.096C908.717 113.563 908.962 113.109 909.282 112.736C909.613 112.352 910.008 112.059 910.466 111.856C910.936 111.653 911.458 111.552 912.034 111.552C912.61 111.552 913.128 111.653 913.586 111.856C914.056 112.059 914.45 112.352 914.77 112.736C915.101 113.109 915.352 113.563 915.522 114.096C915.693 114.629 915.778 115.221 915.778 115.872C915.778 116.533 915.693 117.131 915.522 117.664C915.352 118.187 915.101 118.64 914.77 119.024C914.45 119.397 914.056 119.685 913.586 119.888C913.128 120.091 912.61 120.192 912.034 120.192ZM912.034 119.088C912.749 119.088 913.325 118.875 913.762 118.448C914.2 118.021 914.418 117.36 914.418 116.464V115.28C914.418 114.384 914.2 113.723 913.762 113.296C913.325 112.869 912.749 112.656 912.034 112.656C911.32 112.656 910.744 112.869 910.306 113.296C909.869 113.723 909.65 114.384 909.65 115.28V116.464C909.65 117.36 909.869 118.021 910.306 118.448C910.744 118.875 911.32 119.088 912.034 119.088ZM918.06 118.912H920.476V112.832H918.06V111.744H921.756V113.824H921.836C922.007 113.173 922.327 112.667 922.796 112.304C923.276 111.931 923.884 111.744 924.62 111.744H925.772V113.024H924.22C923.484 113.024 922.887 113.237 922.428 113.664C921.98 114.091 921.756 114.651 921.756 115.344V118.912H924.956V120H918.06V118.912ZM928.102 108.16H929.382V115.632H929.446L930.886 114.272L933.638 111.744H935.206L931.782 114.976L935.606 120H934.022L930.806 115.712L929.382 117.008V120H928.102V108.16ZM941.328 109.92C940.954 109.92 940.693 109.845 940.544 109.696C940.394 109.536 940.32 109.339 940.32 109.104V108.848C940.32 108.613 940.394 108.421 940.544 108.272C940.693 108.112 940.954 108.032 941.328 108.032C941.701 108.032 941.962 108.112 942.112 108.272C942.261 108.421 942.336 108.613 942.336 108.848V109.104C942.336 109.339 942.261 109.536 942.112 109.696C941.962 109.845 941.701 109.92 941.328 109.92ZM937.712 118.912H940.688V112.832H937.712V111.744H941.968V118.912H944.752V120H937.712V118.912ZM947.177 120V111.744H948.457V113.088H948.521C948.607 112.885 948.713 112.693 948.841 112.512C948.969 112.32 949.124 112.155 949.305 112.016C949.497 111.877 949.721 111.765 949.977 111.68C950.233 111.595 950.532 111.552 950.873 111.552C951.737 111.552 952.431 111.829 952.953 112.384C953.476 112.928 953.737 113.701 953.737 114.704V120H952.457V114.928C952.457 114.171 952.292 113.611 951.961 113.248C951.631 112.875 951.145 112.688 950.505 112.688C950.249 112.688 949.999 112.72 949.753 112.784C949.508 112.848 949.289 112.944 949.097 113.072C948.905 113.2 948.751 113.365 948.633 113.568C948.516 113.771 948.457 114.005 948.457 114.272V120H947.177ZM964.179 120.944C964.179 121.776 963.832 122.389 963.139 122.784C962.446 123.189 961.406 123.392 960.019 123.392C958.686 123.392 957.726 123.216 957.139 122.864C956.563 122.512 956.275 122.005 956.275 121.344C956.275 120.896 956.392 120.549 956.627 120.304C956.862 120.059 957.192 119.877 957.619 119.76V119.568C957.384 119.451 957.203 119.301 957.075 119.12C956.947 118.939 956.883 118.709 956.883 118.432C956.883 118.005 957.022 117.685 957.299 117.472C957.587 117.259 957.944 117.099 958.371 116.992V116.928C957.859 116.704 957.459 116.373 957.171 115.936C956.894 115.499 956.755 114.987 956.755 114.4C956.755 113.984 956.83 113.6 956.979 113.248C957.128 112.896 957.342 112.597 957.619 112.352C957.907 112.096 958.248 111.899 958.643 111.76C959.038 111.621 959.475 111.552 959.955 111.552C960.574 111.552 961.118 111.664 961.587 111.888V111.744C961.587 111.424 961.662 111.157 961.811 110.944C961.96 110.731 962.216 110.624 962.579 110.624H964.099V111.744H962.243V112.304C962.542 112.56 962.771 112.864 962.931 113.216C963.091 113.568 963.171 113.963 963.171 114.4C963.171 114.816 963.091 115.2 962.931 115.552C962.782 115.904 962.568 116.208 962.291 116.464C962.014 116.709 961.672 116.901 961.267 117.04C960.872 117.179 960.435 117.248 959.955 117.248C959.816 117.248 959.683 117.243 959.555 117.232C959.427 117.221 959.299 117.205 959.171 117.184C959.043 117.205 958.91 117.243 958.771 117.296C958.632 117.339 958.504 117.403 958.387 117.488C958.27 117.563 958.174 117.653 958.099 117.76C958.024 117.867 957.987 117.989 957.987 118.128C957.987 118.373 958.11 118.539 958.355 118.624C958.6 118.699 958.92 118.736 959.315 118.736H961.139C962.206 118.736 962.979 118.939 963.459 119.344C963.939 119.739 964.179 120.272 964.179 120.944ZM962.979 121.008C962.979 120.677 962.846 120.411 962.579 120.208C962.312 120.016 961.848 119.92 961.187 119.92H958.323C957.768 120.144 957.491 120.517 957.491 121.04C957.491 121.403 957.635 121.712 957.923 121.968C958.211 122.235 958.691 122.368 959.363 122.368H960.611C961.358 122.368 961.939 122.251 962.355 122.016C962.771 121.792 962.979 121.456 962.979 121.008ZM959.955 116.256C960.595 116.256 961.064 116.107 961.363 115.808C961.672 115.509 961.827 115.115 961.827 114.624V114.16C961.827 113.669 961.672 113.28 961.363 112.992C961.064 112.693 960.595 112.544 959.955 112.544C959.315 112.544 958.846 112.693 958.547 112.992C958.248 113.28 958.099 113.669 958.099 114.16V114.624C958.099 115.115 958.248 115.509 958.547 115.808C958.846 116.107 959.315 116.256 959.955 116.256ZM974.871 111.744H976.007L976.951 118.88H977.095L978.503 111.744H979.911L981.319 118.88H981.463L982.407 111.744H983.511L982.247 120H980.583L979.271 113.088H979.143L977.799 120H976.135L974.871 111.744ZM989.296 109.92C988.923 109.92 988.662 109.845 988.512 109.696C988.363 109.536 988.288 109.339 988.288 109.104V108.848C988.288 108.613 988.363 108.421 988.512 108.272C988.662 108.112 988.923 108.032 989.296 108.032C989.67 108.032 989.931 108.112 990.08 108.272C990.23 108.421 990.304 108.613 990.304 108.848V109.104C990.304 109.339 990.23 109.536 990.08 109.696C989.931 109.845 989.67 109.92 989.296 109.92ZM985.68 118.912H988.656V112.832H985.68V111.744H989.936V118.912H992.72V120H985.68V118.912ZM998.778 120C998.149 120 997.685 119.824 997.386 119.472C997.098 119.12 996.954 118.667 996.954 118.112V112.832H994.202V111.744H996.25C996.527 111.744 996.719 111.691 996.826 111.584C996.943 111.467 997.002 111.269 997.002 110.992V108.832H998.234V111.744H1001.99V112.832H998.234V118.912H1001.99V120H998.778ZM1004.74 108.16H1006.02V113.088H1006.08C1006.17 112.885 1006.28 112.693 1006.4 112.512C1006.53 112.32 1006.69 112.155 1006.87 112.016C1007.06 111.877 1007.28 111.765 1007.54 111.68C1007.8 111.595 1008.09 111.552 1008.44 111.552C1009.3 111.552 1009.99 111.829 1010.52 112.384C1011.04 112.928 1011.3 113.701 1011.3 114.704V120H1010.02V114.928C1010.02 114.171 1009.85 113.611 1009.52 113.248C1009.19 112.875 1008.71 112.688 1008.07 112.688C1007.81 112.688 1007.56 112.72 1007.32 112.784C1007.07 112.848 1006.85 112.944 1006.66 113.072C1006.47 113.2 1006.31 113.365 1006.2 113.568C1006.08 113.771 1006.02 114.005 1006.02 114.272V120H1004.74V108.16ZM1027.56 120C1026.93 120 1026.47 119.824 1026.17 119.472C1025.88 119.12 1025.74 118.667 1025.74 118.112V112.832H1022.98V111.744H1025.03C1025.31 111.744 1025.5 111.691 1025.61 111.584C1025.72 111.467 1025.78 111.269 1025.78 110.992V108.832H1027.02V111.744H1030.78V112.832H1027.02V118.912H1030.78V120H1027.56ZM1033.52 108.16H1034.8V113.088H1034.87C1034.95 112.885 1035.06 112.693 1035.19 112.512C1035.31 112.32 1035.47 112.155 1035.65 112.016C1035.84 111.877 1036.07 111.765 1036.32 111.68C1036.58 111.595 1036.88 111.552 1037.22 111.552C1038.08 111.552 1038.77 111.829 1039.3 112.384C1039.82 112.928 1040.08 113.701 1040.08 114.704V120H1038.8V114.928C1038.8 114.171 1038.64 113.611 1038.31 113.248C1037.97 112.875 1037.49 112.688 1036.85 112.688C1036.59 112.688 1036.34 112.72 1036.1 112.784C1035.85 112.848 1035.63 112.944 1035.44 113.072C1035.25 113.2 1035.09 113.365 1034.98 113.568C1034.86 113.771 1034.8 114.005 1034.8 114.272V120H1033.52V108.16ZM1046.49 120.192C1045.89 120.192 1045.35 120.091 1044.87 119.888C1044.41 119.685 1044 119.397 1043.66 119.024C1043.33 118.64 1043.07 118.187 1042.89 117.664C1042.71 117.131 1042.62 116.539 1042.62 115.888C1042.62 115.227 1042.71 114.629 1042.89 114.096C1043.08 113.563 1043.34 113.109 1043.67 112.736C1044.01 112.352 1044.4 112.059 1044.86 111.856C1045.33 111.653 1045.85 111.552 1046.41 111.552C1046.97 111.552 1047.47 111.653 1047.91 111.856C1048.37 112.059 1048.76 112.341 1049.08 112.704C1049.4 113.056 1049.65 113.477 1049.82 113.968C1049.99 114.459 1050.07 114.997 1050.07 115.584V116.192H1043.96V116.576C1043.96 116.939 1044.02 117.275 1044.14 117.584C1044.26 117.893 1044.42 118.16 1044.63 118.384C1044.86 118.608 1045.13 118.784 1045.43 118.912C1045.75 119.029 1046.11 119.088 1046.49 119.088C1047.05 119.088 1047.53 118.96 1047.93 118.704C1048.34 118.448 1048.65 118.096 1048.86 117.648L1049.8 118.288C1049.56 118.843 1049.15 119.301 1048.57 119.664C1048.01 120.016 1047.31 120.192 1046.49 120.192ZM1046.41 112.608C1046.06 112.608 1045.73 112.672 1045.43 112.8C1045.14 112.928 1044.87 113.104 1044.65 113.328C1044.44 113.552 1044.27 113.819 1044.14 114.128C1044.02 114.427 1043.96 114.757 1043.96 115.12V115.232H1048.7V115.056C1048.7 114.693 1048.64 114.363 1048.52 114.064C1048.42 113.765 1048.26 113.509 1048.06 113.296C1047.87 113.072 1047.63 112.901 1047.34 112.784C1047.06 112.667 1046.75 112.608 1046.41 112.608ZM1056.04 120.192C1055.17 120.192 1054.43 120.048 1053.8 119.76C1053.18 119.461 1052.65 119.067 1052.21 118.576L1053.08 117.824C1053.47 118.24 1053.9 118.56 1054.37 118.784C1054.84 119.008 1055.41 119.12 1056.07 119.12C1056.71 119.12 1057.23 119.008 1057.64 118.784C1058.05 118.549 1058.26 118.187 1058.26 117.696C1058.26 117.483 1058.22 117.307 1058.13 117.168C1058.06 117.019 1057.95 116.901 1057.81 116.816C1057.67 116.731 1057.52 116.667 1057.35 116.624C1057.18 116.571 1057 116.528 1056.8 116.496L1055.51 116.304C1055.22 116.261 1054.91 116.203 1054.56 116.128C1054.23 116.053 1053.93 115.936 1053.65 115.776C1053.38 115.605 1053.14 115.381 1052.95 115.104C1052.77 114.827 1052.68 114.464 1052.68 114.016C1052.68 113.6 1052.76 113.243 1052.92 112.944C1053.09 112.635 1053.32 112.379 1053.62 112.176C1053.92 111.963 1054.27 111.808 1054.68 111.712C1055.08 111.605 1055.52 111.552 1056 111.552C1056.75 111.552 1057.4 111.669 1057.94 111.904C1058.5 112.139 1058.97 112.464 1059.36 112.88L1058.53 113.664C1058.44 113.547 1058.31 113.429 1058.16 113.312C1058.03 113.184 1057.85 113.072 1057.64 112.976C1057.43 112.869 1057.19 112.784 1056.92 112.72C1056.64 112.656 1056.32 112.624 1055.96 112.624C1055.31 112.624 1054.8 112.736 1054.45 112.96C1054.11 113.184 1053.94 113.509 1053.94 113.936C1053.94 114.149 1053.98 114.331 1054.05 114.48C1054.14 114.619 1054.25 114.731 1054.39 114.816C1054.53 114.901 1054.68 114.971 1054.85 115.024C1055.03 115.067 1055.22 115.104 1055.4 115.136L1056.69 115.328C1056.99 115.371 1057.31 115.429 1057.64 115.504C1057.97 115.579 1058.27 115.701 1058.55 115.872C1058.83 116.032 1059.06 116.251 1059.24 116.528C1059.43 116.805 1059.52 117.168 1059.52 117.616C1059.52 118.437 1059.2 119.072 1058.56 119.52C1057.94 119.968 1057.09 120.192 1056.04 120.192ZM1065.68 120.192C1065.08 120.192 1064.54 120.091 1064.06 119.888C1063.59 119.685 1063.19 119.397 1062.85 119.024C1062.52 118.64 1062.26 118.187 1062.08 117.664C1061.9 117.131 1061.81 116.539 1061.81 115.888C1061.81 115.227 1061.9 114.629 1062.08 114.096C1062.27 113.563 1062.53 113.109 1062.86 112.736C1063.19 112.352 1063.59 112.059 1064.05 111.856C1064.52 111.653 1065.03 111.552 1065.6 111.552C1066.15 111.552 1066.65 111.653 1067.1 111.856C1067.56 112.059 1067.95 112.341 1068.27 112.704C1068.59 113.056 1068.84 113.477 1069.01 113.968C1069.18 114.459 1069.26 114.997 1069.26 115.584V116.192H1063.15V116.576C1063.15 116.939 1063.21 117.275 1063.33 117.584C1063.44 117.893 1063.61 118.16 1063.82 118.384C1064.05 118.608 1064.31 118.784 1064.62 118.912C1064.94 119.029 1065.29 119.088 1065.68 119.088C1066.23 119.088 1066.71 118.96 1067.12 118.704C1067.52 118.448 1067.83 118.096 1068.05 117.648L1068.99 118.288C1068.75 118.843 1068.33 119.301 1067.76 119.664C1067.19 120.016 1066.5 120.192 1065.68 120.192ZM1065.6 112.608C1065.25 112.608 1064.92 112.672 1064.62 112.8C1064.32 112.928 1064.06 113.104 1063.84 113.328C1063.63 113.552 1063.45 113.819 1063.33 114.128C1063.21 114.427 1063.15 114.757 1063.15 115.12V115.232H1067.89V115.056C1067.89 114.693 1067.83 114.363 1067.71 114.064C1067.6 113.765 1067.45 113.509 1067.25 113.296C1067.05 113.072 1066.81 112.901 1066.53 112.784C1066.25 112.667 1065.94 112.608 1065.6 112.608ZM1087.84 120C1087.34 120 1086.98 119.872 1086.77 119.616C1086.56 119.36 1086.42 119.04 1086.37 118.656H1086.29C1086.11 119.136 1085.82 119.515 1085.41 119.792C1085.02 120.059 1084.48 120.192 1083.81 120.192C1082.95 120.192 1082.26 119.968 1081.75 119.52C1081.23 119.072 1080.98 118.459 1080.98 117.68C1080.98 116.912 1081.26 116.32 1081.81 115.904C1082.38 115.488 1083.28 115.28 1084.53 115.28H1086.29V114.464C1086.29 113.856 1086.12 113.403 1085.78 113.104C1085.44 112.795 1084.95 112.64 1084.32 112.64C1083.77 112.64 1083.31 112.752 1082.96 112.976C1082.61 113.189 1082.33 113.483 1082.11 113.856L1081.25 113.216C1081.36 113.003 1081.5 112.795 1081.68 112.592C1081.86 112.389 1082.09 112.213 1082.35 112.064C1082.62 111.904 1082.92 111.781 1083.27 111.696C1083.61 111.6 1083.99 111.552 1084.4 111.552C1085.37 111.552 1086.14 111.797 1086.71 112.288C1087.28 112.779 1087.57 113.461 1087.57 114.336V118.88H1088.72V120H1087.84ZM1084.03 119.12C1084.36 119.12 1084.66 119.083 1084.93 119.008C1085.21 118.923 1085.45 118.816 1085.65 118.688C1085.85 118.549 1086.01 118.389 1086.11 118.208C1086.23 118.016 1086.29 117.813 1086.29 117.6V116.24H1084.53C1083.76 116.24 1083.2 116.347 1082.85 116.56C1082.5 116.773 1082.32 117.083 1082.32 117.488V117.824C1082.32 118.251 1082.47 118.576 1082.77 118.8C1083.08 119.013 1083.5 119.12 1084.03 119.12ZM1090 111.744H1091.13L1092.08 118.88H1092.22L1093.63 111.744H1095.04L1096.44 118.88H1096.59L1097.53 111.744H1098.64L1097.37 120H1095.71L1094.4 113.088H1094.27L1092.92 120H1091.26L1090 111.744ZM1104.05 120.192C1103.46 120.192 1102.92 120.091 1102.44 119.888C1101.97 119.685 1101.56 119.397 1101.22 119.024C1100.89 118.64 1100.63 118.187 1100.45 117.664C1100.27 117.131 1100.18 116.539 1100.18 115.888C1100.18 115.227 1100.27 114.629 1100.45 114.096C1100.65 113.563 1100.91 113.109 1101.24 112.736C1101.57 112.352 1101.96 112.059 1102.42 111.856C1102.89 111.653 1103.41 111.552 1103.97 111.552C1104.53 111.552 1105.03 111.653 1105.48 111.856C1105.94 112.059 1106.33 112.341 1106.65 112.704C1106.97 113.056 1107.21 113.477 1107.38 113.968C1107.55 114.459 1107.64 114.997 1107.64 115.584V116.192H1101.53V116.576C1101.53 116.939 1101.58 117.275 1101.7 117.584C1101.82 117.893 1101.98 118.16 1102.2 118.384C1102.42 118.608 1102.69 118.784 1103 118.912C1103.32 119.029 1103.67 119.088 1104.05 119.088C1104.61 119.088 1105.09 118.96 1105.49 118.704C1105.9 118.448 1106.21 118.096 1106.42 117.648L1107.37 118.288C1107.12 118.843 1106.71 119.301 1106.13 119.664C1105.57 120.016 1104.87 120.192 1104.05 120.192ZM1103.97 112.608C1103.62 112.608 1103.3 112.672 1103 112.8C1102.7 112.928 1102.44 113.104 1102.21 113.328C1102 113.552 1101.83 113.819 1101.7 114.128C1101.58 114.427 1101.53 114.757 1101.53 115.12V115.232H1106.26V115.056C1106.26 114.693 1106.2 114.363 1106.09 114.064C1105.98 113.765 1105.82 113.509 1105.62 113.296C1105.43 113.072 1105.19 112.901 1104.9 112.784C1104.62 112.667 1104.31 112.608 1103.97 112.608ZM1113.6 120.192C1112.74 120.192 1111.99 120.048 1111.36 119.76C1110.74 119.461 1110.21 119.067 1109.78 118.576L1110.64 117.824C1111.03 118.24 1111.47 118.56 1111.94 118.784C1112.4 119.008 1112.97 119.12 1113.63 119.12C1114.27 119.12 1114.79 119.008 1115.2 118.784C1115.62 118.549 1115.82 118.187 1115.82 117.696C1115.82 117.483 1115.78 117.307 1115.7 117.168C1115.62 117.019 1115.51 116.901 1115.38 116.816C1115.24 116.731 1115.08 116.667 1114.91 116.624C1114.74 116.571 1114.56 116.528 1114.37 116.496L1113.07 116.304C1112.78 116.261 1112.47 116.203 1112.13 116.128C1111.8 116.053 1111.49 115.936 1111.22 115.776C1110.94 115.605 1110.7 115.381 1110.51 115.104C1110.33 114.827 1110.24 114.464 1110.24 114.016C1110.24 113.6 1110.32 113.243 1110.48 112.944C1110.65 112.635 1110.88 112.379 1111.18 112.176C1111.48 111.963 1111.83 111.808 1112.24 111.712C1112.64 111.605 1113.09 111.552 1113.57 111.552C1114.31 111.552 1114.96 111.669 1115.5 111.904C1116.06 112.139 1116.53 112.464 1116.93 112.88L1116.1 113.664C1116 113.547 1115.88 113.429 1115.73 113.312C1115.59 113.184 1115.41 113.072 1115.2 112.976C1115 112.869 1114.76 112.784 1114.48 112.72C1114.2 112.656 1113.88 112.624 1113.52 112.624C1112.87 112.624 1112.37 112.736 1112.02 112.96C1111.67 113.184 1111.5 113.509 1111.5 113.936C1111.5 114.149 1111.54 114.331 1111.62 114.48C1111.7 114.619 1111.81 114.731 1111.95 114.816C1112.09 114.901 1112.24 114.971 1112.42 115.024C1112.6 115.067 1112.78 115.104 1112.96 115.136L1114.26 115.328C1114.55 115.371 1114.87 115.429 1115.2 115.504C1115.53 115.579 1115.83 115.701 1116.11 115.872C1116.39 116.032 1116.62 116.251 1116.8 116.528C1116.99 116.805 1117.09 117.168 1117.09 117.616C1117.09 118.437 1116.77 119.072 1116.13 119.52C1115.5 119.968 1114.66 120.192 1113.6 120.192ZM1123.1 120.192C1122.52 120.192 1122 120.091 1121.53 119.888C1121.07 119.685 1120.68 119.397 1120.34 119.024C1120.02 118.64 1119.78 118.187 1119.61 117.664C1119.44 117.131 1119.35 116.533 1119.35 115.872C1119.35 115.221 1119.44 114.629 1119.61 114.096C1119.78 113.563 1120.02 113.109 1120.34 112.736C1120.68 112.352 1121.07 112.059 1121.53 111.856C1122 111.653 1122.52 111.552 1123.1 111.552C1123.67 111.552 1124.19 111.653 1124.65 111.856C1125.12 112.059 1125.51 112.352 1125.83 112.736C1126.16 113.109 1126.41 113.563 1126.58 114.096C1126.76 114.629 1126.84 115.221 1126.84 115.872C1126.84 116.533 1126.76 117.131 1126.58 117.664C1126.41 118.187 1126.16 118.64 1125.83 119.024C1125.51 119.397 1125.12 119.685 1124.65 119.888C1124.19 120.091 1123.67 120.192 1123.1 120.192ZM1123.1 119.088C1123.81 119.088 1124.39 118.875 1124.82 118.448C1125.26 118.021 1125.48 117.36 1125.48 116.464V115.28C1125.48 114.384 1125.26 113.723 1124.82 113.296C1124.39 112.869 1123.81 112.656 1123.1 112.656C1122.38 112.656 1121.81 112.869 1121.37 113.296C1120.93 113.723 1120.71 114.384 1120.71 115.28V116.464C1120.71 117.36 1120.93 118.021 1121.37 118.448C1121.81 118.875 1122.38 119.088 1123.1 119.088ZM1128.75 120V111.744H1129.94V112.704H1130C1130.13 112.384 1130.31 112.112 1130.55 111.888C1130.78 111.664 1131.13 111.552 1131.59 111.552C1132.07 111.552 1132.42 111.675 1132.66 111.92C1132.89 112.155 1133.04 112.464 1133.09 112.848H1133.14C1133.29 112.475 1133.5 112.165 1133.78 111.92C1134.06 111.675 1134.44 111.552 1134.93 111.552C1135.6 111.552 1136.05 111.787 1136.27 112.256C1136.51 112.725 1136.63 113.397 1136.63 114.272V120H1135.44V114.48C1135.44 113.776 1135.37 113.291 1135.22 113.024C1135.08 112.747 1134.82 112.608 1134.43 112.608C1134.09 112.608 1133.82 112.72 1133.6 112.944C1133.39 113.157 1133.28 113.488 1133.28 113.936V120H1132.1V114.48C1132.1 113.776 1132.02 113.291 1131.87 113.024C1131.74 112.747 1131.48 112.608 1131.11 112.608C1130.77 112.608 1130.48 112.72 1130.26 112.944C1130.05 113.157 1129.94 113.488 1129.94 113.936V120H1128.75ZM1142.43 120.192C1141.83 120.192 1141.29 120.091 1140.81 119.888C1140.34 119.685 1139.94 119.397 1139.6 119.024C1139.27 118.64 1139.01 118.187 1138.83 117.664C1138.65 117.131 1138.56 116.539 1138.56 115.888C1138.56 115.227 1138.65 114.629 1138.83 114.096C1139.02 113.563 1139.28 113.109 1139.61 112.736C1139.94 112.352 1140.34 112.059 1140.8 111.856C1141.27 111.653 1141.78 111.552 1142.35 111.552C1142.9 111.552 1143.4 111.653 1143.85 111.856C1144.31 112.059 1144.7 112.341 1145.02 112.704C1145.34 113.056 1145.59 113.477 1145.76 113.968C1145.93 114.459 1146.01 114.997 1146.01 115.584V116.192H1139.9V116.576C1139.9 116.939 1139.96 117.275 1140.08 117.584C1140.19 117.893 1140.36 118.16 1140.57 118.384C1140.8 118.608 1141.06 118.784 1141.37 118.912C1141.69 119.029 1142.04 119.088 1142.43 119.088C1142.98 119.088 1143.46 118.96 1143.87 118.704C1144.27 118.448 1144.58 118.096 1144.8 117.648L1145.74 118.288C1145.5 118.843 1145.08 119.301 1144.51 119.664C1143.94 120.016 1143.25 120.192 1142.43 120.192ZM1142.35 112.608C1142 112.608 1141.67 112.672 1141.37 112.8C1141.07 112.928 1140.81 113.104 1140.59 113.328C1140.38 113.552 1140.2 113.819 1140.08 114.128C1139.96 114.427 1139.9 114.757 1139.9 115.12V115.232H1144.64V115.056C1144.64 114.693 1144.58 114.363 1144.46 114.064C1144.35 113.765 1144.2 113.509 1144 113.296C1143.8 113.072 1143.56 112.901 1143.28 112.784C1143 112.667 1142.69 112.608 1142.35 112.608ZM1158.19 111.744H1159.47V113.088H1159.54C1160.07 112.064 1160.92 111.552 1162.08 111.552C1163.09 111.552 1163.88 111.931 1164.45 112.688C1165.02 113.445 1165.31 114.507 1165.31 115.872C1165.31 117.237 1165.02 118.299 1164.45 119.056C1163.88 119.813 1163.09 120.192 1162.08 120.192C1160.92 120.192 1160.07 119.68 1159.54 118.656H1159.47V123.2H1158.19V111.744ZM1161.58 119.056C1162.33 119.056 1162.91 118.832 1163.31 118.384C1163.73 117.925 1163.94 117.323 1163.94 116.576V115.168C1163.94 114.421 1163.73 113.824 1163.31 113.376C1162.91 112.917 1162.33 112.688 1161.58 112.688C1161.3 112.688 1161.02 112.725 1160.77 112.8C1160.51 112.875 1160.29 112.987 1160.1 113.136C1159.9 113.275 1159.75 113.451 1159.63 113.664C1159.53 113.867 1159.47 114.107 1159.47 114.384V117.36C1159.47 117.637 1159.53 117.883 1159.63 118.096C1159.75 118.299 1159.9 118.475 1160.1 118.624C1160.29 118.763 1160.51 118.869 1160.77 118.944C1161.02 119.019 1161.3 119.056 1161.58 119.056ZM1167.5 118.912H1169.91V112.832H1167.5V111.744H1171.19V113.824H1171.27C1171.44 113.173 1171.76 112.667 1172.23 112.304C1172.71 111.931 1173.32 111.744 1174.06 111.744H1175.21V113.024H1173.66C1172.92 113.024 1172.32 113.237 1171.87 113.664C1171.42 114.091 1171.19 114.651 1171.19 115.344V118.912H1174.39V120H1167.5V118.912ZM1180.66 120.192C1180.08 120.192 1179.56 120.091 1179.09 119.888C1178.63 119.685 1178.24 119.397 1177.91 119.024C1177.59 118.64 1177.34 118.187 1177.17 117.664C1177 117.131 1176.92 116.533 1176.92 115.872C1176.92 115.221 1177 114.629 1177.17 114.096C1177.34 113.563 1177.59 113.109 1177.91 112.736C1178.24 112.352 1178.63 112.059 1179.09 111.856C1179.56 111.653 1180.08 111.552 1180.66 111.552C1181.24 111.552 1181.75 111.653 1182.21 111.856C1182.68 112.059 1183.08 112.352 1183.4 112.736C1183.73 113.109 1183.98 113.563 1184.15 114.096C1184.32 114.629 1184.4 115.221 1184.4 115.872C1184.4 116.533 1184.32 117.131 1184.15 117.664C1183.98 118.187 1183.73 118.64 1183.4 119.024C1183.08 119.397 1182.68 119.685 1182.21 119.888C1181.75 120.091 1181.24 120.192 1180.66 120.192ZM1180.66 119.088C1181.37 119.088 1181.95 118.875 1182.39 118.448C1182.82 118.021 1183.04 117.36 1183.04 116.464V115.28C1183.04 114.384 1182.82 113.723 1182.39 113.296C1181.95 112.869 1181.37 112.656 1180.66 112.656C1179.94 112.656 1179.37 112.869 1178.93 113.296C1178.49 113.723 1178.28 114.384 1178.28 115.28V116.464C1178.28 117.36 1178.49 118.021 1178.93 118.448C1179.37 118.875 1179.94 119.088 1180.66 119.088ZM1187.09 122.112H1191.09V112.832H1186.94V111.744H1192.37V121.312C1192.37 121.867 1192.22 122.32 1191.92 122.672C1191.63 123.024 1191.17 123.2 1190.54 123.2H1187.09V122.112ZM1191.73 109.92C1191.35 109.92 1191.09 109.845 1190.94 109.696C1190.79 109.536 1190.72 109.339 1190.72 109.104V108.848C1190.72 108.613 1190.79 108.421 1190.94 108.272C1191.09 108.112 1191.35 108.032 1191.73 108.032C1192.1 108.032 1192.36 108.112 1192.51 108.272C1192.66 108.421 1192.73 108.613 1192.73 108.848V109.104C1192.73 109.339 1192.66 109.536 1192.51 109.696C1192.36 109.845 1192.1 109.92 1191.73 109.92ZM1199.99 120.192C1199.39 120.192 1198.85 120.091 1198.37 119.888C1197.91 119.685 1197.5 119.397 1197.16 119.024C1196.83 118.64 1196.57 118.187 1196.39 117.664C1196.21 117.131 1196.12 116.539 1196.12 115.888C1196.12 115.227 1196.21 114.629 1196.39 114.096C1196.58 113.563 1196.84 113.109 1197.17 112.736C1197.51 112.352 1197.9 112.059 1198.36 111.856C1198.83 111.653 1199.35 111.552 1199.91 111.552C1200.47 111.552 1200.97 111.653 1201.41 111.856C1201.87 112.059 1202.26 112.341 1202.58 112.704C1202.9 113.056 1203.15 113.477 1203.32 113.968C1203.49 114.459 1203.57 114.997 1203.57 115.584V116.192H1197.46V116.576C1197.46 116.939 1197.52 117.275 1197.64 117.584C1197.76 117.893 1197.92 118.16 1198.13 118.384C1198.36 118.608 1198.63 118.784 1198.93 118.912C1199.25 119.029 1199.61 119.088 1199.99 119.088C1200.55 119.088 1201.03 118.96 1201.43 118.704C1201.84 118.448 1202.15 118.096 1202.36 117.648L1203.3 118.288C1203.06 118.843 1202.65 119.301 1202.07 119.664C1201.51 120.016 1200.81 120.192 1199.99 120.192ZM1199.91 112.608C1199.56 112.608 1199.23 112.672 1198.93 112.8C1198.64 112.928 1198.37 113.104 1198.15 113.328C1197.94 113.552 1197.77 113.819 1197.64 114.128C1197.52 114.427 1197.46 114.757 1197.46 115.12V115.232H1202.2V115.056C1202.2 114.693 1202.14 114.363 1202.02 114.064C1201.92 113.765 1201.76 113.509 1201.56 113.296C1201.37 113.072 1201.13 112.901 1200.84 112.784C1200.56 112.667 1200.25 112.608 1199.91 112.608ZM1209.73 120.192C1209.13 120.192 1208.6 120.091 1208.13 119.888C1207.67 119.675 1207.28 119.381 1206.96 119.008C1206.64 118.635 1206.4 118.181 1206.22 117.648C1206.06 117.115 1205.98 116.523 1205.98 115.872C1205.98 115.221 1206.07 114.629 1206.24 114.096C1206.41 113.563 1206.66 113.109 1206.98 112.736C1207.3 112.352 1207.69 112.059 1208.14 111.856C1208.6 111.653 1209.13 111.552 1209.71 111.552C1210.51 111.552 1211.16 111.728 1211.66 112.08C1212.17 112.432 1212.53 112.891 1212.77 113.456L1211.74 114C1211.6 113.573 1211.34 113.243 1210.99 113.008C1210.65 112.773 1210.22 112.656 1209.71 112.656C1209.34 112.656 1209 112.72 1208.7 112.848C1208.42 112.965 1208.17 113.136 1207.97 113.36C1207.77 113.584 1207.61 113.851 1207.5 114.16C1207.41 114.469 1207.36 114.805 1207.36 115.168V116.576C1207.36 116.939 1207.41 117.275 1207.5 117.584C1207.61 117.893 1207.77 118.16 1207.97 118.384C1208.17 118.608 1208.42 118.784 1208.72 118.912C1209.02 119.029 1209.36 119.088 1209.74 119.088C1210.3 119.088 1210.76 118.96 1211.12 118.704C1211.48 118.448 1211.77 118.096 1211.98 117.648L1212.9 118.272C1212.65 118.827 1212.27 119.285 1211.74 119.648C1211.23 120.011 1210.56 120.192 1209.73 120.192ZM1219.43 120C1218.81 120 1218.34 119.824 1218.04 119.472C1217.75 119.12 1217.61 118.667 1217.61 118.112V112.832H1214.86V111.744H1216.91C1217.18 111.744 1217.38 111.691 1217.48 111.584C1217.6 111.467 1217.66 111.269 1217.66 110.992V108.832H1218.89V111.744H1222.65V112.832H1218.89V118.912H1222.65V120H1219.43ZM1228.72 120.192C1227.86 120.192 1227.11 120.048 1226.48 119.76C1225.87 119.461 1225.34 119.067 1224.9 118.576L1225.76 117.824C1226.16 118.24 1226.59 118.56 1227.06 118.784C1227.53 119.008 1228.09 119.12 1228.76 119.12C1229.4 119.12 1229.92 119.008 1230.32 118.784C1230.74 118.549 1230.95 118.187 1230.95 117.696C1230.95 117.483 1230.91 117.307 1230.82 117.168C1230.75 117.019 1230.64 116.901 1230.5 116.816C1230.36 116.731 1230.21 116.667 1230.04 116.624C1229.87 116.571 1229.68 116.528 1229.49 116.496L1228.2 116.304C1227.91 116.261 1227.59 116.203 1227.25 116.128C1226.92 116.053 1226.62 115.936 1226.34 115.776C1226.06 115.605 1225.83 115.381 1225.64 115.104C1225.45 114.827 1225.36 114.464 1225.36 114.016C1225.36 113.6 1225.44 113.243 1225.6 112.944C1225.77 112.635 1226.01 112.379 1226.31 112.176C1226.61 111.963 1226.96 111.808 1227.36 111.712C1227.77 111.605 1228.21 111.552 1228.69 111.552C1229.44 111.552 1230.08 111.669 1230.63 111.904C1231.18 112.139 1231.66 112.464 1232.05 112.88L1231.22 113.664C1231.12 113.547 1231 113.429 1230.85 113.312C1230.71 113.184 1230.54 113.072 1230.32 112.976C1230.12 112.869 1229.88 112.784 1229.6 112.72C1229.33 112.656 1229.01 112.624 1228.64 112.624C1227.99 112.624 1227.49 112.736 1227.14 112.96C1226.8 113.184 1226.63 113.509 1226.63 113.936C1226.63 114.149 1226.67 114.331 1226.74 114.48C1226.83 114.619 1226.94 114.731 1227.08 114.816C1227.21 114.901 1227.37 114.971 1227.54 115.024C1227.72 115.067 1227.9 115.104 1228.08 115.136L1229.38 115.328C1229.68 115.371 1229.99 115.429 1230.32 115.504C1230.65 115.579 1230.96 115.701 1231.24 115.872C1231.51 116.032 1231.74 116.251 1231.92 116.528C1232.12 116.805 1232.21 117.168 1232.21 117.616C1232.21 118.437 1231.89 119.072 1231.25 119.52C1230.62 119.968 1229.78 120.192 1228.72 120.192Z" fill="white"/>
</svg>
