<svg width="32" height="32" viewBox="0 0 32 32" fill="none" xmlns="http://www.w3.org/2000/svg">
<path d="M5.21875 4L5.3125 5.09375L7.0625 24.875L7.125 25.5625L7.78125 25.75L15.7188 27.9688L15.9688 28.0312L16.25 27.9688L24.1875 25.7812L24.8438 25.5938L24.9062 24.9062L26.6875 5.09375L26.7812 4.03125H25.6875L6.3125 4H5.21875ZM7.40625 6L24.5938 6.03125L22.9688 24.0312L16 25.9688L9 24.0312L7.40625 6ZM9.8125 9L10.4688 16.4688H19.0312L18.75 19.6875L16 20.4375H15.9688L13.2188 19.6875L13.0625 17.625H10.5625L10.9062 21.5938L15.9688 23H16L21.0625 21.5938L21.75 14H12.7188L12.5 11.4688H21.9688L22.1875 9H9.8125Z" fill="white"/>
</svg>
