<svg width="24" height="24" viewBox="0 0 24 24" fill="none" xmlns="http://www.w3.org/2000/svg">
<path d="M12 17C11.4477 17 11 17.4477 11 18C11 18.5523 11.4477 19 12 19H12.01C12.5623 19 13.01 18.5523 13.01 18C13.01 17.4477 12.5623 17 12.01 17H12Z" fill="#2D3648"/>
<path fill-rule="evenodd" clip-rule="evenodd" d="M6 1C4.34315 1 3 2.34315 3 4V20C3 21.6569 4.34315 23 6 23H18C19.6569 23 21 21.6569 21 20V4C21 2.34315 19.6569 1 18 1H6ZM5 4C5 3.44772 5.44772 3 6 3H18C18.5523 3 19 3.44772 19 4V20C19 20.5523 18.5523 21 18 21H6C5.44772 21 5 20.5523 5 20V4Z" fill="#2D3648"/>
</svg>
