<svg width="24" height="24" viewBox="0 0 24 24" fill="none" xmlns="http://www.w3.org/2000/svg">
<path d="M11.9999 13C9.30342 13 7.61274 14.897 7.28351 15.2949C6.93142 15.7204 6.99095 16.3508 7.41645 16.7029C7.84196 17.055 8.47232 16.9954 8.8244 16.5699C9.0729 16.2696 10.2477 15 11.9999 15C13.8234 15 15.0199 16.3753 15.194 16.5926C15.5393 17.0236 16.1686 17.0931 16.5996 16.7478C17.0306 16.4025 17.1001 15.7731 16.7548 15.3421C16.5145 15.0422 14.7981 13 11.9999 13Z" fill="#12f7d6"/>
<path d="M8 9C8 8.44772 8.44772 8 9 8H9.01C9.56229 8 10.01 8.44772 10.01 9C10.01 9.55229 9.56229 10 9.01 10H9C8.44772 10 8 9.55229 8 9Z" fill="#12f7d6"/>
<path d="M15 8C14.4477 8 14 8.44772 14 9C14 9.55229 14.4477 10 15 10H15.01C15.5623 10 16.01 9.55229 16.01 9C16.01 8.44772 15.5623 8 15.01 8H15Z" fill="#12f7d6"/>
<path fill-rule="evenodd" clip-rule="evenodd" d="M12 1C5.92487 1 1 5.92487 1 12C1 18.0751 5.92487 23 12 23C18.0751 23 23 18.0751 23 12C23 5.92487 18.0751 1 12 1ZM3 12C3 7.02944 7.02944 3 12 3C16.9706 3 21 7.02944 21 12C21 16.9706 16.9706 21 12 21C7.02944 21 3 16.9706 3 12Z" fill="#12f7d6"/>
</svg>
