<svg width="24" height="24" viewBox="0 0 24 24" fill="none" xmlns="http://www.w3.org/2000/svg">
<path fill-rule="evenodd" clip-rule="evenodd" d="M1.00001 5.98266C0.999851 5.99253 0.999835 6.00239 0.999964 6.01225V18C0.999964 19.6523 2.34768 21 3.99996 21H20C21.6523 21 23 19.6523 23 18V6.01236C23.0001 6.00242 23.0001 5.99247 22.9999 5.98251C22.9904 4.33822 21.6464 3 20 3H3.99996C2.35346 3 1.0094 4.3383 1.00001 5.98266ZM3.10654 5.55395C3.27192 5.22692 3.612 5 3.99996 5H20C20.3879 5 20.728 5.22692 20.8934 5.55395L12 11.7793L3.10654 5.55395ZM21 7.92066V18C21 18.5477 20.5477 19 20 19H3.99996C3.45225 19 2.99996 18.5477 2.99996 18V7.92066L11.4265 13.8192C11.7708 14.0603 12.2291 14.0603 12.5734 13.8192L21 7.92066Z" fill="#12f7d6"/>
</svg>
