<svg width="32" height="32" viewBox="0 0 32 32" fill="none" xmlns="http://www.w3.org/2000/svg">
<path d="M15.9941 3C15.6291 3 15.2642 3.08953 14.9492 3.26953L5.03906 8.99023C4.39906 9.36023 4 10.0608 4 10.8008V21.1797C4 21.9297 4.39906 22.6202 5.03906 22.9902L7.64062 24.4902C8.90063 25.1102 9.34992 25.1094 9.91992 25.1094C11.7899 25.1094 12.8594 23.9795 12.8594 22.0195V11.3105C12.8594 11.1505 12.7303 11.0195 12.5703 11.0195H11.3203C11.1503 11.0195 11.0293 11.1505 11.0293 11.3105V22.0098C11.0293 22.8898 10.1204 23.7495 8.65039 23.0195L5.92969 21.4492C5.82969 21.3992 5.76953 21.2897 5.76953 21.1797V10.8105C5.76953 10.6905 5.82969 10.5893 5.92969 10.5293L15.8398 4.81055C15.9298 4.75055 16.0504 4.75055 16.1504 4.81055L26.0605 10.5293C26.1605 10.5893 26.2207 10.6908 26.2207 10.8008V21.1797C26.2207 21.2897 26.1603 21.3992 26.0703 21.4492L16.1504 27.1797C16.0604 27.2297 15.9298 27.2297 15.8398 27.1797L13.2891 25.6699C13.2191 25.6199 13.1208 25.6104 13.0508 25.6504C12.3408 26.0504 12.2108 26.1001 11.5508 26.3301C11.3908 26.3801 11.1406 26.4798 11.6406 26.7598L14.9492 28.7207C15.2692 28.9007 15.6302 29 15.9902 29C16.3602 29 16.7191 28.9007 17.0391 28.7207L26.9609 22.9902C27.6009 22.6202 28 21.9297 28 21.1797V10.8105C28 10.0605 27.6009 9.37 26.9609 9L17.0391 3.26953C16.7241 3.08953 16.3591 3 15.9941 3ZM18.6602 11.0059C15.8302 11.0059 14.1406 12.2051 14.1406 14.2051C14.1406 16.3751 15.8191 16.9741 18.5391 17.2441C21.7891 17.5641 22.0391 18.0455 22.0391 18.6855C22.0391 19.7855 21.1505 20.2559 19.0605 20.2559C16.4305 20.2559 15.8502 19.5949 15.6602 18.2949C15.6402 18.1549 15.5209 18.0547 15.3809 18.0547H14.0898C13.9298 18.0547 13.8105 18.1859 13.8105 18.3359C13.8105 20.0059 14.7205 21.9941 19.0605 21.9941C22.2005 21.9941 24 20.7557 24 18.5957C24 16.4557 22.5498 15.8846 19.5098 15.4746C16.4198 15.0746 16.1094 14.8645 16.1094 14.1445C16.1094 13.5445 16.3802 12.7559 18.6602 12.7559C20.6902 12.7559 21.4498 13.1945 21.7598 14.5645C21.7898 14.6945 21.8991 14.7949 22.0391 14.7949H23.3301C23.4101 14.7949 23.4791 14.7553 23.5391 14.6953C23.5891 14.6453 23.6194 14.5646 23.6094 14.4746C23.4094 12.1146 21.8402 11.0059 18.6602 11.0059Z" fill="white"/>
</svg>
