<svg width="32" height="32" viewBox="0 0 32 32" fill="none" xmlns="http://www.w3.org/2000/svg">
<path d="M11.4043 3.35936C10.559 3.30331 9.72822 3.45455 9 3.87499C8.02904 4.43557 7.38246 5.39244 7.03516 6.49413C6.68786 7.59582 6.60759 8.86545 6.73438 10.2519C6.74722 10.3924 6.77192 10.5388 6.78906 10.6816C6.65652 10.7383 6.51695 10.7904 6.38867 10.8496C5.12454 11.433 4.06559 12.1367 3.28516 12.9883C2.50472 13.8399 2 14.8788 2 16C2 17.1212 2.50472 18.1601 3.28516 19.0117C4.06559 19.8633 5.12454 20.5669 6.38867 21.1504C6.51695 21.2096 6.65652 21.2617 6.78906 21.3183C6.77192 21.4612 6.74722 21.6076 6.73438 21.748C6.60759 23.1345 6.68786 24.4042 7.03516 25.5058C7.38246 26.6075 8.02904 27.5644 9 28.125C9.97096 28.6856 11.1223 28.7676 12.25 28.5176C13.3777 28.2675 14.517 27.7015 15.6543 26.8984C15.7694 26.8171 15.8849 26.7229 16 26.6367C16.1151 26.7229 16.2306 26.8171 16.3457 26.8984C17.483 27.7015 18.6223 28.2675 19.75 28.5176C20.8777 28.7676 22.029 28.6856 23 28.125C23.971 27.5644 24.6175 26.6075 24.9648 25.5058C25.3121 24.4042 25.3924 23.1345 25.2656 21.748C25.2528 21.6076 25.2281 21.4612 25.2109 21.3183C25.3435 21.2617 25.4831 21.2096 25.6113 21.1504C26.8755 20.5669 27.9344 19.8633 28.7148 19.0117C29.4953 18.1601 30 17.1212 30 16C30 14.8788 29.4953 13.8399 28.7148 12.9883C27.9344 12.1367 26.8755 11.433 25.6113 10.8496C25.4831 10.7904 25.3435 10.7383 25.2109 10.6816C25.2281 10.5388 25.2528 10.3924 25.2656 10.2519C25.3924 8.86545 25.3121 7.59582 24.9648 6.49413C24.6175 5.39245 23.971 4.43557 23 3.87499C22.029 3.31441 20.8777 3.23234 19.75 3.48241C18.6223 3.73248 17.483 4.29851 16.3457 5.10155C16.2306 5.18285 16.1151 5.27704 16 5.36327C15.8849 5.27704 15.7694 5.18285 15.6543 5.10155C14.517 4.29851 13.3777 3.73248 12.25 3.48241C11.9681 3.41989 11.6861 3.37805 11.4043 3.35936ZM11.2734 5.35155C11.4439 5.36438 11.625 5.39266 11.8184 5.43554C12.574 5.60311 13.479 6.02726 14.4336 6.6914C13.6386 7.44557 12.8562 8.30354 12.1094 9.26366C10.9058 9.43036 9.77222 9.67718 8.72266 9.98827C8.62492 8.83001 8.70876 7.83369 8.94141 7.09569C9.17959 6.34014 9.53608 5.87526 10 5.60741C10.3479 5.40653 10.7622 5.31306 11.2734 5.35155ZM20.7266 5.35155C21.2378 5.31306 21.6521 5.40653 22 5.60741C22.4639 5.87526 22.8204 6.34014 23.0586 7.09569C23.2912 7.83369 23.3751 8.83001 23.2773 9.98827C22.2278 9.67718 21.0942 9.43036 19.8906 9.26366C19.1438 8.30354 18.3614 7.44557 17.5664 6.6914C18.521 6.02726 19.426 5.60311 20.1816 5.43554C20.375 5.39266 20.5562 5.36438 20.7266 5.35155ZM16 7.95897C16.3515 8.28395 16.7024 8.64533 17.0527 9.02343C16.704 9.0111 16.3555 8.99999 16 8.99999C15.6445 8.99999 15.296 9.0111 14.9473 9.02343C15.2976 8.64533 15.6485 8.28395 16 7.95897ZM16 11C16.9645 11 17.8994 11.0567 18.7988 11.1523C19.3314 11.8835 19.8478 12.6647 20.3301 13.5C20.8124 14.3354 21.2307 15.1732 21.5977 16C21.2307 16.8268 20.8124 17.6646 20.3301 18.5C19.8478 19.3353 19.3314 20.1165 18.7988 20.8476C17.8994 20.9433 16.9645 21 16 21C15.0355 21 14.1006 20.9433 13.2012 20.8476C12.6686 20.1165 12.1522 19.3353 11.6699 18.5C11.1876 17.6646 10.7693 16.8268 10.4023 16C10.7693 15.1732 11.1876 14.3354 11.6699 13.5C12.1522 12.6647 12.6686 11.8835 13.2012 11.1523C14.1006 11.0567 15.0355 11 16 11ZM10.4844 11.5996C10.2993 11.8954 10.1152 12.1921 9.9375 12.5C9.75976 12.8078 9.59531 13.1157 9.43164 13.4238C9.27962 12.9321 9.1427 12.4467 9.03711 11.9805C9.49412 11.8386 9.98194 11.714 10.4844 11.5996ZM21.5156 11.5996C22.0181 11.714 22.5059 11.8386 22.9629 11.9805C22.8573 12.4467 22.7204 12.9321 22.5684 13.4238C22.4047 13.1157 22.2402 12.8078 22.0625 12.5C21.8848 12.1921 21.7007 11.8954 21.5156 11.5996ZM7.1543 12.7031C7.40986 13.7685 7.76277 14.8734 8.2207 16C7.76277 17.1266 7.40986 18.2315 7.1543 19.2969C6.10281 18.8025 5.2824 18.2304 4.75977 17.6601C4.22453 17.0761 4 16.5357 4 16C4 15.4643 4.22453 14.9239 4.75977 14.3398C5.2824 13.7695 6.10281 13.1975 7.1543 12.7031ZM24.8457 12.7031C25.8972 13.1975 26.7176 13.7695 27.2402 14.3398C27.7755 14.9239 28 15.4643 28 16C28 16.5357 27.7755 17.0761 27.2402 17.6601C26.7176 18.2304 25.8972 18.8025 24.8457 19.2969C24.5901 18.2315 24.2372 17.1266 23.7793 16C24.2372 14.8734 24.5901 13.7685 24.8457 12.7031ZM16 13C14.355 13 13 14.355 13 16C13 17.645 14.355 19 16 19C17.645 19 19 17.645 19 16C19 14.355 17.645 13 16 13ZM16 15C16.5641 15 17 15.4359 17 16C17 16.5641 16.5641 17 16 17C15.4359 17 15 16.5641 15 16C15 15.4359 15.4359 15 16 15ZM9.43164 18.5762C9.59531 18.8843 9.75976 19.1921 9.9375 19.5C10.1152 19.8078 10.2993 20.1046 10.4844 20.4004C9.98194 20.286 9.49412 20.1614 9.03711 20.0195C9.1427 19.5533 9.27962 19.0679 9.43164 18.5762ZM22.5684 18.5762C22.7204 19.0679 22.8573 19.5533 22.9629 20.0195C22.5059 20.1614 22.0181 20.286 21.5156 20.4004C21.7007 20.1046 21.8848 19.8078 22.0625 19.5C22.2402 19.1921 22.4047 18.8843 22.5684 18.5762ZM8.72266 22.0117C9.77222 22.3228 10.9058 22.5696 12.1094 22.7363C12.8562 23.6964 13.6386 24.5544 14.4336 25.3086C13.479 25.9727 12.574 26.3969 11.8184 26.5644C11.0449 26.7359 10.4639 26.6604 10 26.3926C9.53608 26.1247 9.17959 25.6598 8.94141 24.9043C8.70876 24.1663 8.62492 23.17 8.72266 22.0117ZM23.2773 22.0117C23.3751 23.17 23.2912 24.1663 23.0586 24.9043C22.8204 25.6598 22.4639 26.1247 22 26.3926C21.5361 26.6604 20.9551 26.7359 20.1816 26.5644C19.426 26.3969 18.521 25.9727 17.5664 25.3086C18.3614 24.5544 19.1438 23.6964 19.8906 22.7363C21.0942 22.5696 22.2278 22.3228 23.2773 22.0117ZM14.9473 22.9766C15.296 22.9889 15.6445 23 16 23C16.3555 23 16.704 22.9889 17.0527 22.9766C16.7024 23.3547 16.3515 23.716 16 24.041C15.6485 23.716 15.2976 23.3547 14.9473 22.9766Z" fill="white"/>
</svg>
