<svg width="32" height="146" viewBox="0 0 32 146" fill="none" xmlns="http://www.w3.org/2000/svg">
<g clip-path="url(#clip0_33_372)">
<path fill-rule="evenodd" clip-rule="evenodd" d="M0 16C0 7.16344 7.16344 0 16 0C24.8366 0 32 7.16344 32 16V28C32 36.8366 24.8366 44 16 44H14V43.8762C6.10738 42.892 0 36.1592 0 28V16ZM16 40C22.6274 40 28 34.6274 28 28V16C28 9.37258 22.6274 4 16 4C9.37258 4 4 9.37258 4 16V28C4 34.6274 9.37258 40 16 40Z" fill="#12F7D6"/>
<path d="M17.3334 9.16669V16.5H14.6667V9.16669H17.3334Z" fill="#12F7D6"/>
</g>
<path d="M16.5 60C16.5 59.7239 16.2761 59.5 16 59.5C15.7239 59.5 15.5 59.7239 15.5 60H16.5ZM16 142.887L18.8868 140L16 137.113L13.1132 140L16 142.887ZM15.5 62.8571C15.5 63.1333 15.7239 63.3571 16 63.3571C16.2761 63.3571 16.5 63.1333 16.5 62.8571H15.5ZM16.5 68.5714C16.5 68.2953 16.2761 68.0714 16 68.0714C15.7239 68.0714 15.5 68.2953 15.5 68.5714H16.5ZM15.5 74.2857C15.5 74.5619 15.7239 74.7857 16 74.7857C16.2761 74.7857 16.5 74.5619 16.5 74.2857H15.5ZM16.5 80C16.5 79.7239 16.2761 79.5 16 79.5C15.7239 79.5 15.5 79.7239 15.5 80H16.5ZM15.5 85.7143C15.5 85.9904 15.7239 86.2143 16 86.2143C16.2761 86.2143 16.5 85.9904 16.5 85.7143H15.5ZM16.5 91.4286C16.5 91.1524 16.2761 90.9286 16 90.9286C15.7239 90.9286 15.5 91.1524 15.5 91.4286H16.5ZM15.5 97.1429C15.5 97.419 15.7239 97.6429 16 97.6429C16.2761 97.6429 16.5 97.419 16.5 97.1429H15.5ZM16.5 102.857C16.5 102.581 16.2761 102.357 16 102.357C15.7239 102.357 15.5 102.581 15.5 102.857H16.5ZM15.5 108.571C15.5 108.848 15.7239 109.071 16 109.071C16.2761 109.071 16.5 108.848 16.5 108.571H15.5ZM16.5 114.286C16.5 114.01 16.2761 113.786 16 113.786C15.7239 113.786 15.5 114.01 15.5 114.286H16.5ZM15.5 120C15.5 120.276 15.7239 120.5 16 120.5C16.2761 120.5 16.5 120.276 16.5 120H15.5ZM16.5 125.714C16.5 125.438 16.2761 125.214 16 125.214C15.7239 125.214 15.5 125.438 15.5 125.714H16.5ZM15.5 131.429C15.5 131.705 15.7239 131.929 16 131.929C16.2761 131.929 16.5 131.705 16.5 131.429H15.5ZM16.5 137.143C16.5 136.867 16.2761 136.643 16 136.643C15.7239 136.643 15.5 136.867 15.5 137.143H16.5ZM15.5 60V62.8571H16.5V60H15.5ZM15.5 68.5714V74.2857H16.5L16.5 68.5714H15.5ZM15.5 80L15.5 85.7143H16.5V80H15.5ZM15.5 91.4286L15.5 97.1429H16.5V91.4286H15.5ZM15.5 102.857L15.5 108.571H16.5V102.857H15.5ZM15.5 114.286V120H16.5V114.286H15.5ZM15.5 125.714V131.429H16.5L16.5 125.714H15.5ZM15.5 137.143V140H16.5V137.143H15.5ZM17 60C17 59.4477 16.5523 59 16 59C15.4477 59 15 59.4477 15 60H17ZM16 145.774L21.7735 140L16 134.226L10.2265 140L16 145.774ZM15 62.8571C15 63.4094 15.4477 63.8571 16 63.8571C16.5523 63.8571 17 63.4094 17 62.8571H15ZM17 68.5714C17 68.0191 16.5523 67.5714 16 67.5714C15.4477 67.5714 15 68.0191 15 68.5714H17ZM15 74.2857C15 74.838 15.4477 75.2857 16 75.2857C16.5523 75.2857 17 74.838 17 74.2857H15ZM17 80C17 79.4477 16.5523 79 16 79C15.4477 79 15 79.4477 15 80H17ZM15 85.7143C15 86.2666 15.4477 86.7143 16 86.7143C16.5523 86.7143 17 86.2666 17 85.7143H15ZM17 91.4286C17 90.8763 16.5523 90.4286 16 90.4286C15.4477 90.4286 15 90.8763 15 91.4286H17ZM15 97.1429C15 97.6951 15.4477 98.1429 16 98.1429C16.5523 98.1429 17 97.6951 17 97.1429H15ZM17 102.857C17 102.305 16.5523 101.857 16 101.857C15.4477 101.857 15 102.305 15 102.857H17ZM15 108.571C15 109.124 15.4477 109.571 16 109.571C16.5523 109.571 17 109.124 17 108.571H15ZM17 114.286C17 113.733 16.5523 113.286 16 113.286C15.4477 113.286 15 113.733 15 114.286H17ZM15 120C15 120.552 15.4477 121 16 121C16.5523 121 17 120.552 17 120H15ZM17 125.714C17 125.162 16.5523 124.714 16 124.714C15.4477 124.714 15 125.162 15 125.714H17ZM15 131.429C15 131.981 15.4477 132.429 16 132.429C16.5523 132.429 17 131.981 17 131.429H15ZM17 137.143C17 136.591 16.5523 136.143 16 136.143C15.4477 136.143 15 136.591 15 137.143H17ZM15 60V62.8571H17V60H15ZM15 68.5714V74.2857H17L17 68.5714H15ZM15 80L15 85.7143H17V80H15ZM15 91.4286L15 97.1429H17V91.4286H15ZM15 102.857L15 108.571H17V102.857H15ZM15 114.286V120H17V114.286H15ZM15 125.714V131.429H17L17 125.714H15ZM15 137.143V140H17V137.143H15Z" fill="white"/>
<defs>
<clipPath id="clip0_33_372">
<rect width="32" height="44" fill="white"/>
</clipPath>
</defs>
</svg>
