<svg width="41" height="40" viewBox="0 0 41 40" fill="none" xmlns="http://www.w3.org/2000/svg">
<path fill-rule="evenodd" clip-rule="evenodd" d="M21.5 26H28.5C30.1569 26 31.5 24.6569 31.5 23V13C31.5 11.3431 30.1569 10 28.5 10H12.5C10.8431 10 9.5 11.3431 9.5 13V23C9.5 24.6569 10.8431 26 12.5 26H19.5V28H16.5C15.9477 28 15.5 28.4477 15.5 29C15.5 29.5523 15.9477 30 16.5 30H24.5C25.0523 30 25.5 29.5523 25.5 29C25.5 28.4477 25.0523 28 24.5 28H21.5V26ZM12.5 12C11.9477 12 11.5 12.4477 11.5 13V23C11.5 23.5523 11.9477 24 12.5 24H28.5C29.0523 24 29.5 23.5523 29.5 23V13C29.5 12.4477 29.0523 12 28.5 12H12.5Z" fill="white"/>
</svg>
